<?xml version="1.0" standalone="no"?>
<!DOCTYPE svg PUBLIC "-//W3C//DTD SVG 20010904//EN"
 "http://www.w3.org/TR/2001/REC-SVG-20010904/DTD/svg10.dtd">
<svg version="1.0" xmlns="http://www.w3.org/2000/svg"
 width="260.000000pt" height="260.000000pt" viewBox="0 0 260.000000 260.000000"
 preserveAspectRatio="xMidYMid meet">
<metadata>
Created by potrace 1.11, written by Peter Selinger 2001-2013
</metadata>
<g transform="translate(0.000000,260.000000) scale(0.100000,-0.100000)"
fill="#000000" stroke="none">
<path d="M91 2546 c-53 -29 -50 26 -51 -1244 0 -1286 -3 -1224 55 -1250 20 -9
312 -12 1206 -12 1282 0 1221 -3 1247 55 17 38 17 2372 0 2410 -26 58 36 55
-1250 55 -963 -1 -1187 -3 -1207 -14z m1581 -419 c94 -46 160 -137 195 -269
14 -53 17 -137 20 -540 l4 -478 -110 0 -111 0 0 413 c0 443 -6 505 -53 597
-82 160 -336 148 -513 -25 -36 -36 -74 -85 -93 -122 l-31 -62 0 -401 0 -400
-110 0 -110 0 0 650 0 650 100 0 100 0 0 -136 0 -136 44 59 c24 32 70 78 103
102 130 96 242 132 403 128 91 -2 112 -6 162 -30z m408 -1572 l0 -115 -760 0
-760 0 0 115 0 115 760 0 760 0 0 -115z"/>
</g>
</svg>
